<?xml version="1.0" standalone="no"?>
<!DOCTYPE svg PUBLIC "-//W3C//DTD SVG 20010904//EN"
 "http://www.w3.org/TR/2001/REC-SVG-20010904/DTD/svg10.dtd">
<svg version="1.0" xmlns="http://www.w3.org/2000/svg"
 width="1563.000000pt" height="1563.000000pt" viewBox="0 0 1563.000000 1563.000000"
 preserveAspectRatio="xMidYMid meet">

<g transform="translate(0.000000,1563.000000) scale(0.100000,-0.100000)"
fill="#000000" stroke="none">
<path d="M8220 12923 c-86 -14 -228 -60 -310 -99 -114 -54 -100 -46 -191 -116
-155 -120 -214 -175 -238 -219 -13 -24 -35 -62 -50 -84 -69 -106 -149 -320
-172 -462 -18 -111 1 -341 39 -458 79 -243 169 -421 250 -496 220 -203 491
-344 720 -374 59 -8 134 -15 167 -15 142 0 331 55 488 143 87 50 230 167 319
262 150 161 282 399 317 572 41 201 21 417 -54 583 -23 52 -46 106 -50 119
-10 32 -110 195 -154 252 -20 25 -78 75 -130 110 -52 35 -101 75 -109 87 -18
28 -207 123 -299 152 -125 39 -427 63 -543 43z"/>
<path d="M4424 12153 c-23 -32 -53 -114 -83 -226 -12 -43 -32 -99 -45 -125
-47 -93 -103 -688 -93 -987 8 -233 54 -527 102 -645 19 -47 37 -98 41 -114 14
-58 146 -320 212 -419 37 -56 80 -122 94 -147 31 -52 126 -152 314 -331 130
-123 199 -177 367 -287 85 -55 189 -124 334 -223 70 -47 215 -125 337 -179 38
-17 88 -44 110 -59 87 -59 570 -290 671 -321 22 -7 83 -34 135 -60 52 -26 113
-53 135 -60 37 -12 277 -114 405 -173 30 -13 98 -39 150 -56 152 -51 598 -258
680 -315 25 -18 92 -56 150 -85 58 -30 136 -72 173 -93 38 -22 114 -62 170
-90 56 -28 120 -63 142 -78 22 -15 94 -55 160 -90 66 -34 134 -73 152 -86 18
-14 62 -38 98 -54 84 -38 141 -77 240 -164 44 -39 105 -91 135 -116 178 -144
450 -403 557 -529 92 -109 326 -455 368 -546 77 -165 115 -255 121 -289 4 -21
24 -78 44 -125 21 -47 41 -102 45 -121 4 -19 25 -92 45 -162 21 -69 50 -186
65 -260 15 -73 35 -164 45 -203 10 -38 21 -88 25 -111 3 -22 15 -56 26 -74
l20 -33 34 33 c19 18 51 65 71 104 21 39 47 85 59 101 13 17 30 53 39 81 9 28
29 71 45 95 15 25 31 57 35 72 4 16 32 82 62 148 31 67 63 152 71 192 8 40 30
108 48 152 19 44 41 109 49 145 8 36 28 94 44 130 17 38 43 131 62 225 18 88
43 195 56 238 42 142 49 227 49 622 -1 318 -3 382 -19 455 -29 137 -112 389
-159 486 -24 49 -68 139 -98 199 -43 89 -68 125 -130 190 -41 44 -94 105 -116
135 -90 123 -345 350 -453 403 -24 12 -76 52 -115 88 -38 36 -92 79 -120 94
-27 16 -94 55 -148 87 -54 32 -108 63 -120 67 -12 5 -65 34 -117 65 -52 31
-131 70 -175 87 -44 17 -109 48 -145 68 -36 21 -76 42 -90 46 -14 4 -59 24
-100 45 -41 21 -86 41 -100 45 -51 15 -297 114 -370 148 -41 19 -106 46 -145
60 -38 14 -97 37 -130 52 -33 14 -103 41 -155 59 -52 19 -117 43 -145 54 -123
52 -238 97 -335 131 -58 21 -144 54 -193 74 -48 21 -93 37 -101 37 -7 0 -53
20 -102 44 -49 25 -103 48 -119 51 -73 17 -161 47 -190 65 -18 11 -61 31 -96
44 -36 13 -81 33 -100 45 -18 11 -76 33 -127 50 -51 16 -116 43 -145 59 -28
17 -77 37 -107 45 -30 9 -75 29 -100 45 -25 15 -74 38 -110 51 -35 13 -156 68
-268 122 -112 55 -205 99 -208 99 -2 0 -23 12 -47 27 -23 15 -64 38 -92 51
-50 24 -83 45 -224 138 -40 27 -97 63 -126 79 -29 17 -67 42 -86 56 -19 14
-61 42 -94 62 -33 20 -98 70 -145 111 -157 140 -195 172 -263 226 -101 79
-376 394 -480 550 -20 30 -49 73 -65 95 -16 22 -46 69 -67 105 -21 36 -65 105
-97 154 -32 48 -58 93 -58 99 0 13 -42 77 -51 77 -3 0 -14 -12 -25 -27z"/>
<path d="M4291 8021 c-54 -54 -96 -590 -72 -931 16 -221 55 -526 81 -625 12
-44 32 -132 45 -195 13 -63 33 -141 44 -172 11 -31 31 -100 45 -152 15 -52 40
-127 57 -168 17 -40 48 -118 69 -173 78 -206 115 -292 152 -357 21 -37 38 -70
38 -73 0 -12 134 -241 160 -275 15 -19 39 -58 53 -86 14 -27 33 -56 42 -64 9
-8 45 -57 80 -109 35 -53 81 -114 103 -136 21 -22 62 -67 89 -101 108 -129
385 -397 498 -479 22 -16 63 -48 90 -71 49 -40 240 -167 385 -256 70 -43 274
-148 406 -210 62 -29 334 -127 444 -160 160 -48 358 -90 580 -123 52 -8 230
-20 395 -26 322 -13 619 -3 840 28 61 8 142 18 180 22 39 5 124 23 190 40 236
63 261 76 309 171 40 77 51 166 49 382 -2 216 -10 293 -53 473 -16 66 -34 146
-40 178 -11 54 -66 188 -110 267 -11 19 -37 71 -59 115 -51 103 -143 239 -206
307 -47 49 -88 103 -128 170 -9 14 -49 52 -89 83 -40 30 -112 91 -161 135 -81
73 -280 221 -337 250 -14 7 -65 42 -115 78 -49 36 -114 76 -144 90 -29 13
-104 55 -165 92 -61 37 -142 84 -181 105 -38 20 -90 50 -115 66 -25 16 -64 35
-87 43 -23 8 -92 41 -155 73 -62 32 -158 76 -213 98 -55 22 -153 66 -217 98
-64 31 -119 57 -122 57 -3 0 -42 17 -88 39 -46 21 -99 42 -118 46 -39 8 -125
49 -134 64 -4 5 -32 17 -64 26 -69 20 -228 88 -297 127 -87 49 -132 68 -211
88 -84 22 -351 151 -500 242 -51 31 -102 59 -115 63 -37 11 -179 95 -229 135
-25 20 -67 52 -95 70 -65 44 -192 147 -277 224 -36 34 -95 86 -129 116 -35 30
-113 103 -174 161 -143 138 -184 160 -224 120z"/>
</g>
</svg>
